<svg xmlns="http://www.w3.org/2000/svg" width="16" height="15.2" viewBox="0 0 16 15.2"><path d="M14.4,3.2H12.64a2.842,2.842,0,0,0,.16-.8A2.357,2.357,0,0,0,10.4,0a2.291,2.291,0,0,0-2,1.04L8,1.6l-.4-.56A2.291,2.291,0,0,0,5.6,0,2.357,2.357,0,0,0,3.2,2.4a2.842,2.842,0,0,0,.16.8H1.6A1.6,1.6,0,0,0,0,4.8v8.8a1.6,1.6,0,0,0,1.6,1.6H14.4A1.6,1.6,0,0,0,16,13.6V4.8A1.6,1.6,0,0,0,14.4,3.2Zm-4-1.6a.756.756,0,0,1,.8.8.8.8,0,0,1-1.6,0A.756.756,0,0,1,10.4,1.6Zm-4.8,0a.756.756,0,0,1,.8.8.756.756,0,0,1-.8.8.756.756,0,0,1-.8-.8A.756.756,0,0,1,5.6,1.6Zm8.8,12H1.6V12H14.4Zm0-4H1.6v-4a.756.756,0,0,1,.8-.8H5.68L4.48,6.4a.846.846,0,0,0,.16,1.12.86.86,0,0,0,1.12-.16L8,4.32l2.24,3.04a.846.846,0,0,0,1.12.16.772.772,0,0,0,.16-1.12l-1.2-1.6H13.6a.8.8,0,0,1,.8.8Z" fill="#fff"></path></svg>